<svg xmlns="http://www.w3.org/2000/svg" viewBox="0 0 64 64" role="img" aria-label="DevGuessr glitchpop development icon">
  <defs>
    <linearGradient id="bg" x1="0" y1="0" x2="1" y2="1">
      <stop offset="0" stop-color="#090f1f"/>
      <stop offset="0.55" stop-color="#17112d"/>
      <stop offset="1" stop-color="#1e0a29"/>
    </linearGradient>
    <linearGradient id="neon" x1="0" y1="0" x2="1" y2="0">
      <stop offset="0" stop-color="#00f0ff"/>
      <stop offset="0.52" stop-color="#ff3e9a"/>
      <stop offset="1" stop-color="#ffd86a"/>
    </linearGradient>
  </defs>

  <rect width="64" height="64" rx="14" fill="url(#bg)"/>

  <path d="M6 22h10v2H6zm42 0h10v2H48zM8 40h8v2H8zm40 0h8v2h-8z" fill="#00f0ff" opacity="0.45"/>
  <path d="M13 15h3v3h-3zm35 0h3v3h-3zM13 46h3v3h-3zm35 0h3v3h-3z" fill="#ff3e9a" opacity="0.55"/>

  <path d="M24 22l-8 10 8 10 3-2.8-5.8-7.2 5.8-7.2z" fill="#00f0ff"/>
  <path d="M40 22l8 10-8 10-3-2.8 5.8-7.2-5.8-7.2z" fill="#ff3e9a"/>
  <path d="M35.5 19L30 45h-3.8L31.8 19z" fill="url(#neon)"/>

  <path d="M24 18l-7.2 8.8" stroke="#ffffff" stroke-opacity="0.35" stroke-width="1.1"/>
  <path d="M40 18l7.2 8.8" stroke="#ffffff" stroke-opacity="0.35" stroke-width="1.1"/>

  <circle cx="50" cy="14" r="2.4" fill="#ffd86a"/>
</svg>
